<svg id="Capa_1" enable-background="new 0 0 512 512" height="512" viewBox="0 0 512 512" width="512" xmlns="http://www.w3.org/2000/svg"><path d="m502 30v346h-492v-346c0-11.05 8.95-20 20-20h452c11.05 0 20 8.95 20 20z" fill="#bfdbff"/><g fill="#ecf2f3"><path d="m286 223h156v90h-156z"/><path d="m70 73h372v90h-372z"/><path d="m10 376v40c0 11.05 8.95 20 20 20h166v66h120v-66h166c11.05 0 20-8.95 20-20v-40z"/><path d="m70 223h156v90h-156z"/></g><path d="m482 0h-452c-16.542 0-30 13.458-30 30v386c0 16.542 13.458 30 30 30h156v46h-50c-5.523 0-10 4.477-10 10s4.477 10 10 10h240c5.523 0 10-4.477 10-10s-4.477-10-10-10h-50v-46h156c16.542 0 30-13.458 30-30v-386c0-16.542-13.458-30-30-30zm-176 492h-100v-46h100zm176-66h-452c-5.514 0-10-4.486-10-10v-30h191c5.523 0 10-4.477 10-10s-4.477-10-10-10h-191v-336c0-5.514 4.486-10 10-10h452c5.514 0 10 4.486 10 10v336h-191c-5.523 0-10 4.477-10 10s4.477 10 10 10h191v30c0 5.514-4.486 10-10 10z"/><path d="m70 173h372c5.523 0 10-4.477 10-10v-90c0-5.523-4.477-10-10-10h-372c-5.523 0-10 4.477-10 10v90c0 5.523 4.477 10 10 10zm10-90h352v70h-352z"/><path d="m226 213h-156c-5.523 0-10 4.477-10 10v90c0 5.523 4.477 10 10 10h156c5.523 0 10-4.477 10-10v-90c0-5.523-4.477-10-10-10zm-10 90h-136v-70h136z"/><path d="m452 313v-90c0-5.523-4.477-10-10-10h-156c-5.523 0-10 4.477-10 10v90c0 5.523 4.477 10 10 10h156c5.523 0 10-4.477 10-10zm-20-10h-136v-70h136z"/><ellipse cx="256" cy="376" rx="10" ry="10" transform="matrix(.987 -.16 .16 .987 -56.923 45.862)"/></svg>